<?xml version="1.0" standalone="no"?>
<!DOCTYPE svg PUBLIC "-//W3C//DTD SVG 1.1//EN" "http://www.w3.org/Graphics/SVG/1.1/DTD/svg11.dtd" >
<!--
2013-9-30: Created.
-->
<svg>
<metadata>
Created by iconfont
</metadata>
<defs>

<font id="iconfont" horiz-adv-x="1024" >
  <font-face
    font-family="iconfont"
    font-weight="500"
    font-stretch="normal"
    units-per-em="1024"
    ascent="896"
    descent="-128"
  />
    <missing-glyph />
    
    <glyph glyph-name="houtui" unicode="&#58965;" d="M476.16 518.826667V668.444444A11.377778 11.377778 0 0 1 455.111111 679.253333l-312.888889-284.444444a11.377778 11.377778 0 0 1 0-17.066667l312.888889-284.444444a11.377778 11.377778 0 0 1 19.342222 7.964444v137.102222a498.346667 498.346667 0 0 0 373.76-107.52 11.377778 11.377778 0 0 1 18.204445 11.377778c-19.911111 95.573333-106.951111 376.604444-390.257778 376.604445z"  horiz-adv-x="1024" />

    
    <glyph glyph-name="jiaohuan" unicode="&#59186;" d="M912 526.9c0-4.1-1.3-7.6-4-10.3L765.2 373.7c-2.7-2.7-6.1-4-10.3-4-3.8 0-7.2 1.4-10.1 4.2-2.8 2.8-4.2 6.2-4.2 10.1v85.8H126.3c-3.8 0-7.2 1.4-10.1 4.2-2.8 2.8-4.2 6.2-4.2 10.1v85.8c0 3.8 1.4 7.2 4.2 10.1 2.8 2.8 6.2 4.2 10.1 4.2h614.3V670c0 4.1 1.3 7.6 4 10.3 2.7 2.6 6.1 4 10.3 4 3.5 0 7.1-1.5 10.7-4.5L908 537.4c2.7-2.9 4-6.3 4-10.5z m0-242.9v-85.8c0-3.8-1.4-7.2-4.2-10.1-2.8-2.8-6.2-4.2-10.1-4.2H283.4v-85.8c0-3.8-1.4-7.2-4.2-10.1-2.8-2.8-6.2-4.2-10.1-4.2-3.5 0-7.1 1.5-10.7 4.5L116.1 231.1c-2.7 2.7-4 5.9-4 9.9 0 4.1 1.3 7.6 4 10.3L259 394.2c2.7 2.7 6.1 4 10.3 4 3.8 0 7.2-1.4 10.1-4.2s4.2-6.2 4.2-10.1v-85.8h614.3c3.8 0 7.2-1.4 10.1-4.2 2.6-2.7 4-6 4-9.9z"  horiz-adv-x="1024" />

    
    <glyph glyph-name="jiaohuan1" unicode="&#59066;" d="M560.697 423.978a23 23 0 0 0 13.27-4.214L820.026 245.95c10.375-7.33 12.844-21.681 5.515-32.056a23 23 0 0 0-5.1-5.215L574.383 26.505c-10.21-7.559-24.613-5.41-32.171 4.799a23 23 0 0 0-4.515 13.686V162.184h-201.16c-143.36-0.815-221.206 70.034-233.537 212.546 12.457-13.043 66.902-90 233.537-90 111.09 0 178.144 1.277 201.16 3.828v112.42c0 12.703 10.297 23 23 23zM406.788 776.696a23 23 0 0 0 4.515-13.686v-117.194h201.16c143.36 0.815 221.206-70.034 233.537-212.546-12.457 13.043-66.902 90-233.537 90-111.09 0-178.144-1.277-201.16-3.828v-112.42c0-12.703-10.297-23-23-23a23 23 0 0 0-13.27 4.214L128.974 562.05c-10.375 7.33-12.844 21.681-5.515 32.056a23 23 0 0 0 5.1 5.215l246.058 182.173c10.21 7.559 24.613 5.41 32.171-4.799z"  horiz-adv-x="1024" />

    
    <glyph glyph-name="shourangzhaiquanguanli" unicode="&#58918;" d="M663.013515-52.003677c-5.962356 0-11.906468 2.375455-16.296134 7.072848l-100.768927 107.80042c-8.352407 8.937453-7.948592 22.929893 0.897637 31.378389l100.764062 96.077616c8.922857 8.504446 23.04301 8.168744 31.538942-0.749248 8.494715-8.909477 8.167528-23.034496-0.745599-31.530428l-84.785385-80.842105 85.683023-91.67457c8.409574-8.998268 7.938861-23.114773-1.064272-31.519481C673.935987-50.008928 668.467453-52.003677 663.013515-52.003677L663.013515-52.003677zM663.013515-52.003677M836.427828 55.800392 562.239723 55.800392c-12.320013 0-22.302277 9.987129-22.302277 22.302277s9.982264 22.302277 22.302277 22.302277l274.18324 0c12.320013 0 22.307142-9.987129 22.307142-22.302277S848.742976 55.800392 836.427828 55.800392L836.427828 55.800392zM836.427828 55.800392M498.873573 410.797762c-112.014938 0-203.14825 91.12723-203.14825 203.142168 0 112.005207 91.133312 203.133654 203.14825 203.133654 112.008856 0 203.137303-91.128447 203.137303-203.133654C702.010876 501.924993 637.43328 410.797762 498.873573 410.797762L498.873573 410.797762zM498.873573 772.464165c-87.417482 0-158.53883-71.115267-158.53883-158.5291 0-87.412617 71.116483-158.5291 158.53883-158.5291 87.407752 0 158.527884 71.116483 158.527884 158.5291C657.402673 701.348898 586.281324 772.464165 498.873573 772.464165L498.873573 772.464165zM498.873573 772.464165M190.932839 16.365159c-10.747323 0-20.216304 7.797769-21.988469 18.753082-14.268543 88.178893 6.655653 176.631455 58.914452 249.083448C280.122486 356.6476 357.467698 404.402399 445.645374 418.669726c109.838958 17.775168 220.969637-20.064265 297.283417-101.215313 8.438765-8.973942 8.005758-23.090446-0.9694-31.527995-8.980024-8.435116-23.100177-7.992379-31.529212 0.968183-66.151502 70.351424-162.467515 103.158978-257.663305 87.741021-76.413517-12.362584-143.43833-53.74878-188.727668-116.532317-45.288121-62.788402-63.423317-139.448831-51.060732-215.857483 1.97164-12.164326-6.295625-23.619542-18.453869-25.580235C193.318025 16.464897 192.11631 16.365159 190.932839 16.365159L190.932839 16.365159zM190.932839 16.365159"  horiz-adv-x="1024" />

    
    <glyph glyph-name="shuju1" unicode="&#59023;" d="M428.836929 508.84438c105.099686 0 214.334553 23.113417 279.922341 67.1207l0-80.20674 60.763922 0L769.523191 671.453874c0 105.625666-175.532829 162.619728-340.687286 162.619728S88.155782 777.07954 88.155782 671.453874l0-479.326856c0-105.620549 175.527712-162.609495 340.682169-162.609495l0 60.758806c-173.429935 0-279.917224 59.32413-279.917224 101.850689L148.920728 336.295512c65.593927-44.007283 174.822654-67.121723 279.917224-67.121723l0 60.763922c-173.429935 0-279.917224 59.32413-279.917224 101.855806L148.920728 575.959963C214.502375 531.95882 323.732126 508.84438 428.836929 508.84438L428.836929 508.84438zM428.836929 773.30968c173.436074 0 279.922341-59.325154 279.922341-101.855806 0-42.526559-106.48729-101.844549-279.922341-101.844549-173.429935 0-279.917224 59.31799-279.917224 101.844549C148.919704 713.984526 255.406994 773.30968 428.836929 773.30968L428.836929 773.30968zM428.836929 773.30968M701.167361 475.632977c-150.854776 0-229.788523-58.036811-229.788523-115.359354l0-308.018236c0-57.32152 78.933747-115.352191 229.788523-115.352191 149.72607 0 228.556463 57.170071 229.725078 114.075105l0.057305 0L930.949744 360.279762C930.948721 417.602306 852.02623 475.632977 701.167361 475.632977L701.167361 475.632977zM701.167361 414.869055c111.51377 0 169.017438-38.264489 169.017438-54.594409 0-16.334014-57.503669-54.598502-169.017438-54.598502-111.520933 0-169.024601 38.264489-169.024601 54.598502C532.142759 376.604566 589.657684 414.869055 701.167361 414.869055L701.167361 414.869055zM701.167361-2.321626c-111.520933 0-169.024601 38.266535-169.024601 54.594409l0 73.53069c38.557154-20.938891 95.14394-34.880415 169.024601-34.880415s130.460284 13.941524 169.017438 34.880415l0-73.53069C870.184799 35.943886 812.68113-2.321626 701.167361-2.321626L701.167361-2.321626zM701.167361 151.681864c-111.520933 0-169.024601 38.264489-169.024601 54.594409l0 73.53069c38.557154-20.939915 95.14394-34.885532 169.024601-34.885532s130.460284 13.936407 169.017438 34.875299l0-73.53069C870.184799 189.947376 812.68113 151.681864 701.167361 151.681864L701.167361 151.681864zM701.167361 151.681864"  horiz-adv-x="1024" />

    
    <glyph glyph-name="chengxin" unicode="&#58900;" d="M90.205465 53.65527c0.030699 0.699941 0.071631 1.396813 0.106424 2.095731C90.24128 55.062316 90.205465 54.362374 90.205465 53.65527zM1011.480872 101.470275 832.984548 420.493146c12.262278 35.155684 18.947538 72.977082 18.947538 112.329345C851.932086 721.195765 699.243545 873.883283 510.871293 873.883283S169.809477 721.195765 169.809477 532.82249c0-39.352263 6.684236-77.148078 18.947538-112.329345L10.261715 101.470275c-25.708522-45.961798-1.432629-67.473741 18.394952-65.161069 19.85214 2.312672 171.584913 41.212634 171.584913 41.212634s40.433898-136.052652 56.039317-168.56923c9.097192-19.72832 41.137932-25.306362 65.161069 18.394952L470.713688 194.124512c13.167904-1.557472 26.587542-2.362814 40.157605-2.362814 13.594623 0 26.989701 0.804319 40.156582 2.362814l149.271722-266.776949c23.998577-43.701315 56.062853-38.123272 65.161069-18.394952 15.629979 32.516578 56.013735 168.56923 56.013735 168.56923s151.759379-38.900985 171.585937-41.212634C1012.93806 33.997558 1037.18837 55.508477 1011.480872 101.470275zM285.481963-38.827051l-55.988152 168.594813L57.906851 88.529545l155.352207 277.634228c44.202735-78.80788 118.813013-138.239458 207.949122-162.464185L285.481963-38.827051zM525.371542 239.986025c-4.799306-0.227174-9.650801-0.352017-14.500249-0.352017-4.876054 0-9.699919 0.124843-14.499226 0.352017-17.439184 0.854461-34.452673 3.216251-50.988278 6.985088-91.824335 20.958334-167.238932 85.014232-203.827245 169.776731-8.696056 20.179598-15.204283 41.540092-19.224854 63.72844-3.065825 16.987906-4.64888 34.502815-4.64888 52.345182 0 161.937183 131.252323 293.215088 293.189506 293.215088 161.936159 0 293.214065-131.277906 293.214065-293.215088 0-17.866926-1.608637-35.357276-4.674463-52.345182-4.021593-22.213931-10.528797-43.548842-19.22383-63.72844-36.589336-84.762499-112.003933-148.818397-203.829292-169.776731C559.824215 243.202277 542.810726 240.840486 525.371542 239.986025zM792.249799 129.767761l-55.990199-168.594813L600.558965 203.699588c89.109504 24.224728 163.719782 83.656305 207.92354 162.464185L963.834712 88.529545 792.249799 129.767761zM478.680127 466.782402c5.050016-0.578168 10.528797-0.880043 16.358573-0.880043 7.389294 0 11.106965 3.996011 11.106965 11.987009 0.778736 15.781428 1.156336 31.05939 1.156336 45.887097l-23.647583 0C483.45385 503.496581 481.795071 484.523461 478.680127 466.782402zM753.850234 532.82249c0 134.194328-108.787682 242.979964-242.97894 242.979964-134.193305 0-242.979964-108.785635-242.979964-242.979964 0-134.192282 108.786659-242.977917 242.979964-242.977917C645.063575 289.844573 753.850234 398.630209 753.850234 532.82249zM400.650983 668.398282c11.685133-15.20326 23.571858-31.939433 35.659151-50.259684-12.464893-7.990998-23.370267-15.001669-32.718169-21.033036-10.328229 17.515932-21.334911 34.955116-33.021068 52.29504L400.650983 668.398282zM372.909152 432.906873c5.653767 6.407943 8.570189 14.70184 8.770757 24.828478l0 85.894276-18.696828 0 0 38.57455 53.450353 0 0-103.433744c5.478781 6.634094 11.106965 13.242606 16.937764 19.877723 0-15.002692 1.106194-30.106692 3.240811-45.284369-14.600533-14.424524-29.226648-30.683836-43.826158-48.802496L372.909152 432.906873zM645.214001 407.475667c-5.453199-17.138332-14.021342-25.708522-25.706475-25.708522-18.11866 0-33.122375 13.645788-45.008077 40.910759-13.041014-15.001669-27.064402-28.723182-42.066071-41.188074-7.589862 8.544607-16.45988 17.514909-26.586518 26.863834 21.611204 16.761756 40.608883 35.156708 56.968479 55.209416-5.252631 28.64848-8.66945 70.338998-10.226922 125.071553l-68.931952 0 0-30.984688 57.547671 0c-0.201591-18.898419-0.87902-45.861514-2.035356-80.917938-1.557472-29.427216-12.866029-45.007053-33.900088-46.766117-10.529821-0.577145-18.520819-0.678452-23.948435-0.276293-1.180895 10.327206-2.562359 20.052708-4.096295 29.201066-6.231935-30.005384-16.962324-56.190767-32.140001-78.58173-11.308557 9.724479-21.712511 18.017352-31.262004 24.827455 22.793122 28.823466 34.076096 68.654636 33.875528 119.492488l0 100.217493 104.036471 0c-0.200568 14.626115-0.200568 30.006408 0 46.163389l38.272675 0c-0.402159-16.359596-0.602727-31.737842-0.602727-46.163389l27.466562 0c-6.609535 6.231935-14.97711 13.82282-25.130354 22.793122l20.757766 21.034059c12.866029-10.127661 24.425296-19.777439 34.753525-28.924773l-14.902408-14.902408 18.696828 0 0-36.211736L589.703733 588.634634c0.376577-30.582529 1.657756-56.969503 3.794419-79.184457 9.54847 16.937764 17.439184 34.95614 23.671119 54.055127l32.41834-13.747095c-13.620206-34.076096-29.603225-64.558341-47.897893-91.445712 1.760087-6.811126 3.794419-12.766768 6.132674-17.816784 2.711761-6.434549 6.231935-10.127661 10.504238-11.106965 4.095271 0 6.734378 2.337231 7.890714 7.010671 1.959631 10.127661 3.316535 23.093974 4.096295 38.876426 6.608511-3.920286 14.499226-7.992021 23.672142-12.288884C652.024104 442.934251 649.109728 424.414455 645.214001 407.475667z"  horiz-adv-x="1039" />

    
    <glyph glyph-name="gongzi" unicode="&#58901;" d="M791.423479 689.682028l0 38.495756c0 12.706393-10.29139 23.016203-22.997784 23.016203L262.265704 751.193986c-12.706393 0-22.997784-10.308787-22.997784-23.016203l0-38.335097-4.492314 0c-58.845223 0-106.71958-47.874357-106.71958-106.701161l0-461.454814c0-58.8442 47.874357-106.718557 106.71958-106.718557l553.48074 0c58.82578 0 106.717534 47.874357 106.717534 106.718557L894.97388 583.141526C894.974903 640.894881 848.801281 687.981293 791.423479 689.682028zM848.944544 583.141526l0-138.719388-57.521065 0L791.423479 643.507382C823.387471 641.80767 848.944544 615.516888 848.944544 583.141526zM285.263487 705.181023l460.165448 0L745.428935 444.422138 285.263487 444.422138 285.263487 705.181023zM234.775606 643.829723l4.492314 0L239.26792 444.422138l-61.3513 0c-1.324158 0-2.577708-0.161682-3.830235-0.375553L174.086385 583.141526C174.087409 616.591359 201.3094 643.829723 234.775606 643.829723zM788.25737 60.981119 234.775606 60.981119c-33.467229 0-60.688197 27.239388-60.688197 60.705594L174.087409 398.803147c1.252527-0.214894 2.506077-0.375553 3.830235-0.375553l84.34806 0 506.161015 0 80.518848 0 0-276.740882C848.944544 88.220506 821.722552 60.981119 788.25737 60.981119zM565.636083 588.77892c7.873318 0 14.282285 6.389524 14.282285 14.263865 0 7.892761-6.408967 14.263865-14.282285 14.263865l-30.121018 0 28.600385 28.599362c5.564739 5.584182 5.564739 14.603603 0 20.169365-5.565762 5.584182-14.604626 5.584182-20.170388 0l-35.365462-35.347043-35.364439 35.347043c-5.565762 5.584182-14.603603 5.584182-20.151969 0-5.584182-5.565762-5.584182-14.586207 0-20.169365l28.580942-28.599362-30.121018 0c-7.874341 0-14.263865-6.371104-14.263865-14.263865 0-7.874341 6.389524-14.263865 14.263865-14.263865l42.791595 0 0-28.509311-42.791595 0c-7.874341 0-14.263865-6.389524-14.263865-14.282285 0-7.874341 6.389524-14.263865 14.263865-14.263865l42.791595 0 0-38.031175c0-7.891737 6.390547-14.262842 14.263865-14.262842 7.874341 0 14.263865 6.371104 14.263865 14.262842l0 38.031175L565.636083 531.723459c7.873318 0 14.282285 6.389524 14.282285 14.263865 0 7.891737-6.408967 14.282285-14.282285 14.282285l-42.790572 0 0 28.509311L565.636083 588.77892z"  horiz-adv-x="1024" />

    
    <glyph glyph-name="data-base" unicode="&#59074;" d="M942 704.1c-2.2 63-193.9 113.9-430 113.9s-427.8-50.9-430-113.9v-639.1c0-63.5 192.5-115 430-115s430 51.5 430 115v639.1zM885.3 310.3c-4.6-3.3-11.6-7.4-21.9-12.2-21.3-9.8-50.5-19.1-84.4-26.8-74-16.8-168.8-26-267-26s-193 9.2-267 26c-33.9 7.7-63.1 16.9-84.4 26.8-10.3 4.8-17.3 8.9-21.9 12.2 0.1 0.1 0.2 0.1 0.3 0.2h-7v123c72.2-36.4 215.3-61.1 380-61.1s307.8 24.8 380 61.1v-122.9h-7l0.3-0.3zM885.3 487.3c-4.6-3.3-11.6-7.4-21.9-12.2-21.3-9.8-50.5-19.1-84.4-26.8-74-16.8-168.8-26-267-26s-193 9.2-267 26c-33.9 7.7-63.1 16.9-84.4 26.8-10.3 4.8-17.3 8.9-21.9 12.2 0.1 0.1 0.2 0.1 0.3 0.2h-7v161.6c72.2-36.4 215.3-61.1 380-61.1s307.8 24.8 380 61.1v-161.6h-7c0.1 0 0.2-0.1 0.3-0.2zM160.7 715.2c21.3 9.8 50.5 19.1 84.3 26.8 74 16.8 168.8 26 267 26s193-9.2 267-26c33.9-7.7 63.1-16.9 84.4-26.8 10.3-4.8 17.3-8.9 21.9-12.2-4.6-3.3-11.6-7.4-21.9-12.2-21.4-9.8-50.6-19.1-84.4-26.8-74-16.8-168.8-26-267-26s-193 9.2-267 26c-33.9 7.7-63.1 16.9-84.4 26.8-10.3 4.8-17.3 8.9-21.9 12.2 4.7 3.3 11.7 7.4 22 12.2zM885.3 65c-4.6-3.3-11.6-7.4-21.9-12.2-21.4-9.8-50.6-19.1-84.4-26.8-74-16.8-168.8-26-267-26s-193 9.2-267 26c-33.9 7.7-63.1 16.9-84.4 26.8-10.3 4.8-17.3 8.9-21.9 12.2 0.1 0.1 0.2 0.1 0.3 0.2h-7v191.3c72.2-36.4 215.3-61.1 380-61.1s307.8 24.8 380 61.1v-191.3h-7c0.1-0.1 0.2-0.1 0.3-0.2z"  horiz-adv-x="1024" />

    
    <glyph glyph-name="wodegongzi" unicode="&#58970;" d="M387.017 634.845h242.129c74.925 0 132.079 162.482 132.079 162.482 0 48.66-4.872 85.474-88.07 88.068-83.172 2.62-103.098-58.158-162.872-58.158-61.266 0-91.91 47.78-167.301 58.158-75.365 10.427-88.044-39.408-88.044-88.068 0-0.001 57.129-162.482 132.079-162.482z m255.346-50.227H387.017c-282.762 0-352.204-555.51-352.204-555.51 0-72.967 59.138-146.253 132.08-146.253h695.57c72.942 0 132.078 73.286 132.078 146.253 0 0-69.465 555.51-352.178 555.51z m28.982-426.93c17.036 0 30.842-13.83 30.842-30.867 0-17.035-13.805-30.865-30.842-30.865H546.143v-80.971c0-17.035-13.805-30.867-30.817-30.867-17.036 0-30.84 13.832-30.84 30.867v80.97h-126.01c-17.035 0-30.84 13.83-30.84 30.866 0 17.037 13.805 30.867 30.84 30.867h126.01V196.85h-126.01c-17.035 0-30.84 13.806-30.84 30.842s13.805 30.89 30.84 30.89h85.181l-87.212 154.99c-8.518 14.785-3.452 33.633 11.284 42.15 14.759 8.519 33.607 3.476 42.125-11.259l105.008-185.88h5.31l105.008 185.88c8.517 14.735 27.365 19.779 42.101 11.258 14.76-8.516 19.828-27.364 11.309-42.148l-87.213-154.99h79.968c17.036 0 30.842-13.854 30.842-30.891 0-17.035-13.805-30.842-30.842-30.842H546.143v-39.162h125.202z"  horiz-adv-x="1024" />

    
    <glyph glyph-name="gongshixuke" unicode="&#58968;" d="M642.679467 259.1744l-60.347734 60.347733a17.066667 17.066667 0 1 1-24.132266-24.132266l72.413866-72.413867a17.015467 17.015467 0 0 1 24.132267 0l120.6784 120.6784a17.066667 17.066667 0 1 1-24.132267 24.132267l-108.612266-108.612267zM343.04 537.6a85.367467 85.367467 0 0 1 83.626667-68.266667h170.666666a85.367467 85.367467 0 0 1 83.626667 68.266667H819.2a34.133333 34.133333 0 0 0 34.133333-34.133333v-375.466667a34.133333 34.133333 0 0 0-34.133333-34.133333H204.8a34.133333 34.133333 0 0 0-34.133333 34.133333V503.466667a34.133333 34.133333 0 0 0 34.133333 34.133333h138.24zM256 401.066667a17.066667 17.066667 0 0 1 0-34.133334h136.533333a17.066667 17.066667 0 0 1 0 34.133334h-136.533333z m0-85.333334a17.066667 17.066667 0 0 1 0-34.133333h170.666667a17.066667 17.066667 0 0 1 0 34.133333H256z m0-85.333333a17.066667 17.066667 0 0 1 0-34.133333h204.8a17.066667 17.066667 0 0 1 0 34.133333H256zM580.266667 622.933333a68.266667 68.266667 0 1 0 0-136.533333h-136.533334a68.266667 68.266667 0 1 0 0 136.533333 68.266667 68.266667 0 1 0 136.533334 0z m-68.266667-34.133333a34.133333 34.133333 0 1 1 0 68.266667 34.133333 34.133333 0 0 1 0-68.266667z"  horiz-adv-x="1024" />

    
    <glyph glyph-name="winfo-icon-hangzhengchufa" unicode="&#58974;" d="M832.2 575.8v-575.3H192V767.8h448.1v64H160c-17.6 0-32-14.4-32-32v-831.3c0-17.6 14.4-32 32-32h704.1c17.6 0 32 14.4 32 32V575.8h-63.9zM288 191.8h448.1c17.7 0 32 14.3 32 32s-14.3 32-32 32H288c-17.7 0-32-14.3-32-32s14.4-32 32-32zM608.6 318.8H737c17.7 0 32 14.3 32 32s-14.3 32-32 32H608.6c-17.7 0-32-14.3-32-32s14.3-32 32-32zM288 64.3h448.1c17.7 0 32 14.3 32 32s-14.3 32-32 32H288c-17.7 0-32-14.3-32-32s14.4-32 32-32zM640.1 544.1h224.2c17.7 0 32 14.3 32 32s-14.3 32-32 32H640.1c-17.7 0-32-14.3-32-32s14.4-32 32-32zM608.1 800.1v-223.9c0-17.7 14.3-32 32-32s32 14.3 32 32V800.1c0 17.7-14.3 32-32 32-17.6 0-32-14.4-32-32zM618.4 776.5l223.2-223.2c12.5-12.5 32.8-12.5 45.3 0s12.5 32.8 0 45.3L663.6 821.8c-12.5 12.5-32.8 12.5-45.3 0-12.4-12.5-12.4-32.8 0.1-45.3zM640.1 768.2c17.7 0 32 14.3 32 32s-14.3 32-32 32-32-14.3-32-32 14.4-32 32-32zM864.2 543.8c17.7 0 32 14.3 32 32s-14.3 32-32 32-32-14.3-32-32 14.3-32 32-32zM372.8 437.8C333.5 414 309.6 397.4 301 388l-22 27.2c5.9 6.1 9 13.8 9.4 23.1v46.9h-30.5V521H327v-67.4l40.7 24.3c1.9-17.7 3.5-31.1 5.1-40.1z m147 231.1v-95.8h-185l30-29.6-33.4-25.8c-10.5 12.7-23 26.4-37.2 41l18.9 14.4h-44.7v95.8h251.4z m-214.4-62.4h37.5v29h-37.5v-29z m70.3 0h37.5v29h-37.5v-29z m15.2-53.9h39.3v-103.1h-39.3V552.6z m85 12.6h41v-129.8c0-10.2-2-18.5-5.9-25.1s-10.2-11.2-18.8-13.7c-8.5-2.5-31.3-3.7-68.2-3.4-2 11.1-4.9 24.2-8.8 39.3 21.1-0.8 36.2-1.2 45.4-1.2 10.2 0 15.2 5.4 15.2 16.1V565.2z m7.6 41.3v29H446v-29h37.5z"  horiz-adv-x="1024" />

    
    <glyph glyph-name="wj-zyzdj" unicode="&#59182;" d="M256.1 832h64v-160h-64zM352.2 768h128.1v-64H352.2zM512.3 832h64v-160h-64zM160.1 0c-17.7 0-32 14.3-32 32V672c0 17.7 14.3 32 32 32h64.1v64h-64.1C107 768 64 725 64 672v-640c0-53 43-96 96.1-96h416.1v64H160.1zM512.7 193H224.8c-17.7 0-32-14.3-32-32s14.3-32 32-32h287.9c17.7 0 32 14.3 32 32s-14.3 32-32 32zM224.8 385c-17.7 0-32-14.3-32-32s14.3-32 32-32h383.9c17.7 0 32 14.3 32 32s-14.3 32-32 32H224.8zM224.8 577c-17.7 0-32-14.3-32-32s14.3-32 32-32h383.9c17.7 0 32 14.3 32 32s-14.3 32-32 32H224.8zM768.3 672c0 53-43 96-96 96h-64v-64h64c17.7 0 32-14.3 32-32v-288l64-1V672zM773-64l-18.8 13.6c-1.6 1.2-40.4 29.4-80.1 70.3-56.3 58.1-86 111.9-88.1 160-1.6 37.3 13.5 71 43.8 97.2l2.1 1.8 2.4 1.4c49.6 29.9 91.2 23.4 117.4 12.7 8.1-3.3 15.2-7.2 21.3-11.2 6.1 3.9 13.2 7.9 21.3 11.2 26.2 10.7 67.9 17.2 117.4-12.7l2.4-1.4 2.1-1.8c30.3-26.3 45.4-59.9 43.7-97.2-2.1-48.1-31.7-102-88.1-160-39.7-40.9-78.4-69.1-80.1-70.3L773-64zM669.7 227c-14.2-13.1-20.5-27.2-19.7-44.2 1.4-31.1 26.2-73.1 70.1-118.3 19.7-20.3 39.2-37.2 52.9-48.4 13.9 11.4 33.8 28.6 53.6 49.1 43.4 44.9 68.1 86.7 69.4 117.6 0.7 17.1-5.5 31.2-19.7 44.2-20.9 12-39.9 14.2-57.8 6.9-13-5.3-20.9-13.9-21-14l-25.1-29.8-23.6 29.6c-1.2 1.3-9.7 10-23.1 14.9-17.5 6.4-35.8 3.9-56-7.6z m79.1-7.5z m-0.3 0.4z"  horiz-adv-x="1024" />

    
    <glyph glyph-name="shujuku" unicode="&#58897;" d="M94.189892 554.900434a182.147168 182.147168 0 0 1 34.109957-42.978546 314.4938 314.4938 0 0 1 53.893732-42.296346 460.484415 460.484415 0 0 1 83.910493-42.978545 716.991289 716.991289 0 0 1 245.591688-42.296347 716.991289 716.991289 0 0 1 245.591688 42.296347 460.484415 460.484415 0 0 1 83.910493 42.978545 314.4938 314.4938 0 0 1 53.893731 42.296346 182.147168 182.147168 0 0 1 34.109957 42.978546 123.478043 123.478043 0 0 1 19.101576 42.296346 136.439827 136.439827 0 0 1 6.821991 42.978545C955.125198 782.072745 756.60525 896 511.695762 896S68.266325 782.072745 68.266325 640.175325a136.439827 136.439827 0 0 1 6.821992-42.978545A123.478043 123.478043 0 0 1 94.189892 554.900434zM929.201631 469.625542a182.147168 182.147168 0 0 0-34.109957-42.978545 314.4938 314.4938 0 0 0-53.893731-42.296347 460.484415 460.484415 0 0 0-83.910493-42.978545 716.991289 716.991289 0 0 0-245.591688-42.296346 716.991289 716.991289 0 0 0-245.591688 42.296346 460.484415 460.484415 0 0 0-83.910493 42.978545 314.4938 314.4938 0 0 0-53.893732 42.296347 182.147168 182.147168 0 0 0-34.109957 42.978545 123.478043 123.478043 0 0 0-19.101575 42.296346 124.842441 124.842441 0 0 1-6.821992-42.296346 136.439827 136.439827 0 0 1 6.821992-42.978545 123.478043 123.478043 0 0 1 19.101575-42.296347 182.147168 182.147168 0 0 1 34.109957-42.978545 314.4938 314.4938 0 0 1 53.893732-42.296346 460.484415 460.484415 0 0 1 83.910493-42.978546 716.991289 716.991289 0 0 1 245.591688-42.296346 716.991289 716.991289 0 0 1 245.591688 42.296346 460.484415 460.484415 0 0 1 83.910493 42.978546 314.4938 314.4938 0 0 1 53.893731 42.296346 182.147168 182.147168 0 0 1 34.109957 42.978545 123.478043 123.478043 0 0 1 19.101576 42.296347 136.439827 136.439827 0 0 1 6.821991 42.978545 124.842441 124.842441 0 0 1-6.821991 42.296346 123.478043 123.478043 0 0 0-19.101576-42.296346zM929.201631 299.075759a182.147168 182.147168 0 0 0-34.109957-42.978546 314.4938 314.4938 0 0 0-53.893731-42.296346 460.484415 460.484415 0 0 0-83.910493-42.978545 716.991289 716.991289 0 0 0-245.591688-42.296346 716.991289 716.991289 0 0 0-245.591688 42.296346A460.484415 460.484415 0 0 0 182.193581 213.800867a314.4938 314.4938 0 0 0-53.893732 42.296346 182.147168 182.147168 0 0 0-34.109957 42.978546 123.478043 123.478043 0 0 0-19.101575 42.296346 124.842441 124.842441 0 0 1-6.821992-42.296346 136.439827 136.439827 0 0 1 6.821992-42.978546 123.478043 123.478043 0 0 1 19.101575-42.296346 182.147168 182.147168 0 0 1 34.109957-42.978545 314.4938 314.4938 0 0 1 53.893732-42.296346 460.484415 460.484415 0 0 1 83.910493-42.978546 716.991289 716.991289 0 0 1 245.591688-42.296346 716.991289 716.991289 0 0 1 245.591688 42.296346 460.484415 460.484415 0 0 1 83.910493 42.978546 314.4938 314.4938 0 0 1 53.893731 42.296346 182.147168 182.147168 0 0 1 34.109957 42.978545 123.478043 123.478043 0 0 1 19.101576 42.296346 136.439827 136.439827 0 0 1 6.821991 42.978546 124.842441 124.842441 0 0 1-6.821991 42.296346 123.478043 123.478043 0 0 0-19.101576-42.296346zM929.201631 128.525976a182.147168 182.147168 0 0 0-34.109957-42.978546 314.4938 314.4938 0 0 0-53.893731-42.296346 618.072414 618.072414 0 0 0-329.502181-85.274892 618.072414 618.072414 0 0 0-329.502181 85.274892 314.4938 314.4938 0 0 0-53.893732 42.296346 182.147168 182.147168 0 0 0-34.109957 42.978546 123.478043 123.478043 0 0 0-19.101575 42.296346 124.842441 124.842441 0 0 1-6.821992-42.296346 136.439827 136.439827 0 0 1 6.821992-42.978546 123.478043 123.478043 0 0 1 19.101575-42.296346 182.147168 182.147168 0 0 1 34.109957-42.978545A556.674492 556.674492 0 0 1 511.695762-127.298699a556.674492 556.674492 0 0 1 383.395912 127.571238 182.147168 182.147168 0 0 1 34.109957 42.978545 123.478043 123.478043 0 0 1 19.101576 42.296346 136.439827 136.439827 0 0 1 6.821991 42.978546 124.842441 124.842441 0 0 1-6.821991 42.296346 123.478043 123.478043 0 0 0-19.101576-42.296346z"  horiz-adv-x="1024" />

    
    <glyph glyph-name="kehushangbao" unicode="&#59044;" d="M495.7 400.8v17.3H270.9c-6.7 0-18.2-14.1-18.2-21v-7.5c0-6.8 11.6-23.4 18.2-23.4h172.9c12.6 19.4 33.2 22.3 51.9 34.6zM461.4 37.8H170.6c-13.4 0-20.8 3.4-20.8 17.2V712.1c0 13.7 3.9 17.3 17.3 17.3h518.7c13.4 0 17.4-8.7 17.4-22.5V470c16.6-1.4 33.5-0.6 51.9 0V729.4c0 27.4-25 51.9-51.7 51.9h-557c-26.7 0-48.4-22.2-48.4-49.6v-693.8c0-27.4 25.2-52 51.9-52H513c-18.5 14.3-37.3 33.4-51.6 51.9zM409.3 245.2c0.6 5.1-1.7 12.4 0 17.3H270.9c-6.7 0-18.2-7.2-18.2-14v-24.8c0-6.8 11.6-13.1 18.2-13.1h138.3c-0.2 9.4-1.7 19.4 0.3 28.8 0.1 0.4 0.8 16.6-0.2 5.8zM597.1 521.1l2.4 0.8v17.3c0 6.8-10.6 17.3-17.3 17.3H270.9c-6.7 0-18.2-3.8-18.2-10.6v-24.8c0-6.8 11.6-16.5 18.2-16.5h311.2c6.8 0 15 9.6 15 16.5zM712.9 331.6c-5.1 5.1-11.7 7.6-18.3 7.6-6.6 0-13.3-2.5-18.3-7.6l-97.8-97.8c-10.1-10.1-10.1-26.6 0-36.7 5.1-5.1 11.7-7.6 18.3-7.6 6.6 0 13.3 2.5 18.3 7.6l53.5 53.5v-152.5c0-14.3 11.6-25.9 25.9-25.9 14.3 0 25.9 11.6 25.9 25.9V250.7l53.5-53.5c5.1-5.1 11.7-7.6 18.3-7.6 6.6 0 13.3 2.5 18.3 7.6 10.1 10.1 10.1 26.5 0 36.7l-97.6 97.7zM694.6 435.4c-128.9 0-233.4-104.5-233.4-233.4s104.5-233.4 233.4-233.4C823.5-31.5 928 73.1 928 202S823.5 435.4 694.6 435.4z m0-415C594.4 20.4 513 101.9 513 202s81.4 181.6 181.6 181.6c100.1 0 181.6-81.4 181.6-181.6s-81.5-181.6-181.6-181.6z"  horiz-adv-x="1024" />

    
    <glyph glyph-name="jurassic_data" unicode="&#59049;" d="M512 512c-229.8 0-416 57.3-416 128v-256c0-70.7 186.2-128 416-128s416 57.3 416 128V640c0-70.7-186.2-128-416-128zM512 192c-229.8 0-416 57.3-416 128v-256c0-70.7 186.2-128 416-128s416 57.3 416 128V320c0-70.7-186.2-128-416-128zM512 576c229.8 0 416 57.3 416 128S741.8 832 512 832 96 774.7 96 704s186.2-128 416-128z"  horiz-adv-x="1024" />

    
    <glyph glyph-name="offence" unicode="&#58880;" d="M426.13333333 596.58666667l-60.37333333 79.36-46.4-20.90666667 65.49333333-87.68zM532.90666667 339.84000000000003h49.70666666v110.93333333h73.28l-0.96-46.4h-45.76l8.21333334-39.46666666h77.54666666l7.36 126.72H582.61333333v36.26666666h94.61333334v39.89333334h-94.61333334v35.30666666h109.54666667v40.42666667H582.61333333v45.86666667h-49.70666666v-45.86666667h-93.33333334v-40.42666667h93.33333334v-35.30666666h-76.58666667v-39.89333334h76.58666667v-36.26666666H429.86666667v-40.85333334h103.04zM512 861.86666667c-218.66666667 0-395.94666667-170.45333333-395.94666667-380.69333334C116.05333333 127.25333333000003 512-93.86666666999997 512-93.86666666999997s395.94666667 251.41333333 395.94666667 575.04C907.94666667 691.41333333 730.66666667 861.86666667 512 861.86666667z m0-709.97333334c-173.44 0-314.02666667 140.58666667-314.02666667 314.02666667S338.56 779.94666667 512 779.94666667s314.02666667-140.58666667 314.02666667-314.02666667S685.44 151.89333333000002 512 151.89333333000002zM460.58666667 340.15999999999997c-18.24 6.82666667-37.76 18.77333333-51.62666667 34.56V541.76h-105.81333333v-45.01333333h57.6v-121.6L301.76 312.53333333l35.73333333-37.12 47.78666667 57.6c24.32-21.22666667 44.48-34.34666667 60.37333333-39.25333333 24.10666667-7.46666667 45.44-11.41333333 83.09333334-13.22666667h186.66666666l11.62666667 49.70666667-198.18666667-1.81333333c-33.38666667 3.2-56.10666667 7.14666667-68.26666666 11.73333333z"  horiz-adv-x="1024" />

    
    <glyph glyph-name="shujudaoru" unicode="&#58948;" d="M143.36 156.444444V304.355556c67.015111-54.272 191.715556-91.022222 334.506667-91.022223v52.337778c-204.231111 0-334.506667 76.8-334.506667 129.706667V543.288889c67.015111-54.272 191.715556-91.022222 334.506667-91.022222s267.491556 36.408889 334.506666 91.022222v-211.057778H864.711111V634.311111c0 100.579556-173.169778 182.044444-386.844444 182.044445S91.022222 734.890667 91.022222 634.311111v-477.866667c0-100.579556 173.169778-182.044444 386.844445-182.044444v52.337778c-204.231111 0-334.506667 76.8-334.506667 129.706666zM477.866667 764.017778c204.8 0 334.506667-76.8 334.506666-129.706667S682.666667 504.604444 477.866667 504.604444 143.36 581.404444 143.36 634.311111 273.635556 764.017778 477.866667 764.017778zM694.044444 193.422222h238.933334v-142.222222H694.044444zM512 122.311111l230.058667-170.666667V292.977778L512 122.311111z"  horiz-adv-x="1024" />

    
    <glyph glyph-name="weifachaxun" unicode="&#58888;" d="M462.912031 57.599884a381.439762 381.439762 0 1 0 376.575764 381.439762 379.071763 379.071763 0 0 0-376.575764-381.439762z m361.407774 88.703945a470.527706 470.527706 0 0 1 101.375936 292.735817 462.847711 462.847711 0 1 1-462.78371-468.735707 456.511715 456.511715 0 0 1 252.607842 75.903952c164.735897-183.039886 151.935905-165.247897 151.935905-165.247897l105.471934 98.111939-148.607907 167.295896v-0.064zM719.99987 602.879543V667.967503h-152.959904v26.879983H487.232015v-26.879983H365.312092V602.879543h121.919923v-44.927972h-124.159922v-67.327958h121.855924v-49.407969h-124.159922v-65.087959h124.159922v-110.015931H562.559968v110.079931h81.983949v-33.663979c1.471999-10.495993-2.175999-14.975991-11.071993-13.439992H595.839948V275.199748h86.399946c23.679985-1.535999 34.751978 11.967993 33.279979 40.383975V441.215644H562.559968v49.407969h152.959905V557.951571H564.735967V602.879543h155.071903z m-474.239704 0h86.399946V688.12749h-86.399946V602.879543z m84.159948-318.719801V504.127605h-119.679925V434.559648h46.59197v-161.599899a22.015986 22.015986 0 0 0-22.207986-26.879983h-20.031987v-62.847961h68.735957a38.015976 38.015976 0 0 1 39.871975 29.183982c19.199988-18.239989 44.479972-28.671982 70.911956-29.183982h321.407799v62.783961H400.76807a119.359925 119.359925 0 0 0-70.911956 38.015976V284.159742z"  horiz-adv-x="1024" />

    
    <glyph glyph-name="nashuichouhuayouhua" unicode="&#58933;" d="M1260.064 286.528c-5.44 21.664-27.072 40.64-51.456 46.016-24.352 2.72-46.016-2.688-64.96-10.816-13.568-5.44-27.104-13.536-40.64-18.944 5.44 27.072-10.816 46.016-35.2 51.424-21.664 5.44-46.016 2.72-67.68-5.408-16.256-5.44-29.76-13.536-43.328-27.072l-5.44 8.128c-21.632 27.072-51.424 35.2-83.904 24.352-18.976-5.408-35.2-13.536-51.456-24.352-32.48-16.256-62.272-35.2-92.064-54.176l-13.536-8.096v-2.72c8.128 0 16.256-2.72 24.384-2.72 24.352 0 48.736 0 70.4-2.688 21.632 0 43.296-2.72 64.96-10.848 21.664-5.408 37.92-16.224 48.736-37.888 8.128-13.536 8.128-27.104 10.848-40.64 2.72-29.76-8.128-54.144-32.512-70.4-29.76-21.664-64.96-29.76-100.16-29.76h-200.384c-18.944 0-37.888 2.688-54.144 10.816-40.64 13.536-73.12 37.92-105.6 67.68l-8.128 8.128c16.256-5.408 29.76-10.816 46.016-13.536 48.768-16.224 97.504-24.352 148.928-24.352h162.464c13.536 0 24.384 0 37.92 2.688a133.312 133.312 0 0 1 46.016 16.256c13.536 10.816 16.256 24.384 13.536 37.92-2.688 13.536-10.816 21.664-24.352 27.072-5.44 2.688-13.536 5.408-18.944 5.408-32.512 2.72-64.992 2.72-100.192 5.44h-27.072c-32.512 2.688-62.272 10.816-92.064 21.632-27.072 10.848-51.456 21.664-75.84 37.92-43.296 32.48-86.624 62.272-132.672 89.344-32.48 18.944-64.96 27.072-102.88 24.384-27.072-2.72-54.144-8.128-78.528-18.976-62.272-27.072-124.544-54.144-189.536-81.216-8.128-2.72-16.256-8.128-24.384-10.848l138.112-300.544c2.72 2.72 5.44 2.72 8.128 5.44 24.352 16.224 48.736 32.48 73.088 46.016 18.976 10.816 40.64 18.944 64.992 10.816 13.536-5.408 27.072-10.816 37.92-16.256 64.96-32.48 129.952-67.68 197.664-100.16 24.352-10.848 46.016-21.664 70.4-32.512 24.352-8.128 48.736-13.536 73.088-8.128 24.384 2.72 48.736 13.568 70.4 27.104 154.336 92.064 303.264 192.224 452.192 292.416a215.68 215.68 0 0 1 46.048 40.64c8.096 16.224 16.224 27.072 10.816 46.016z m-595.68 89.344c86.624 0 157.024 70.4 157.024 157.056s-70.4 157.056-157.024 159.744c-86.656 0-157.056-70.4-159.776-157.056 2.72-86.624 73.12-159.744 159.776-159.744zM761.856 741.44c40.608-16.224 75.808-46.016 100.16-81.216 2.72-2.72 5.44-5.44 10.848-5.44 59.552 2.72 108.32 54.176 108.32 116.448 0 5.44 0 10.816-2.72 16.256-8.128 62.272-67.68 105.6-132.672 94.752-62.272-10.816-102.912-67.68-92.064-129.952 2.688-5.44 2.688-8.128 8.128-10.848z"  horiz-adv-x="1280" />

    
    <glyph glyph-name="Ajinashuirenxinyongjibiechaxun" unicode="&#59027;" d="M0 896h1024v-1024H0zM904-88H120c-44.112 0-80 35.888-80 80V776c0 44.112 35.888 80 80 80h784c44.112 0 80-35.888 80-80v-784c0-44.112-35.888-80-80-80zM120 816c-22.056 0-40-17.944-40-40v-784c0-22.056 17.944-40 40-40h784c22.056 0 40 17.944 40 40V776c0 22.056-17.944 40-40 40H120m0 80h784c66.274 0 120-53.726 120-120v-784c0-66.274-53.726-120-120-120H120c-66.274 0-120 53.726-120 120V776C0 842.274 53.726 896 120 896zM550.022 682.826l172.38-473.604a40 40 0 0 0-75.176-27.362l-172.38 473.604a40 40 0 0 0 75.176 27.362zM549.152 655.462l-172.38-473.604a40 40 0 0 0-51.268-23.908A40 40 0 0 0 301.6 209.22l172.378 473.606a40 40 0 0 0 51.268 23.906 40 40 0 0 0 23.908-51.268zM628 304H396a40 40 0 0 0 0 80h232a40 40 0 0 0 0-80zM696 44H328a40 40 0 0 0 0 80h368a40 40 0 0 0 0-80z"  horiz-adv-x="1024" />

    
    <glyph glyph-name="zhanweishigongchengxinbaozhengjinshuangceng" unicode="&#58966;" d="M563.2 866.4576l340.992-196.9152a102.4 102.4 0 0 0 51.2-88.6784v-393.728a102.4 102.4 0 0 0-51.2-88.6784L563.2-98.4576a102.4 102.4 0 0 0-102.4 0l-340.992 196.9152a102.4 102.4 0 0 0-51.2 88.6784v393.728a102.4 102.4 0 0 0 51.2 88.6784L460.8 866.4576a102.4 102.4 0 0 0 102.4 0zM659.7632 573.44l295.3216-294.5024v-91.0336a102.4 102.4 0 0 0-50.8416-88.4224l-250.3168-145.92L512 179.2c-41.0112-8.8576-45.6192 27.136-13.824 107.8272 14.5408 37.0176 98.9184-19.968 121.5488 25.9584 4.1472 8.448 7.8848 19.968 11.264 34.5088 3.072 13.4144-135.68-30.7712-132.864 0 1.28 13.4656 23.2448 25.8048 45.8752 62.8224 9.8816 16.128 42.9056-12.288 75.7248 19.9168 8.5504 8.3456-43.8272 24.8832-38.4 52.3776 3.072 15.616 29.184 45.9264 78.4384 90.8288zM585.984 462.9504h30.9248c16.896 0 30.6176-14.0288 30.6176-31.3344a31.0272 31.0272 0 0 0-30.6176-31.3856h-74.24v-40.0384h74.24c16.896 0 30.6176-14.0288 30.6176-31.3344a30.976 30.976 0 0 0-30.6176-31.3344h-74.24v-86.9888A30.976 30.976 0 0 0 512 179.2a31.0272 31.0272 0 0 0-30.6176 31.3344v86.9888h-74.24a31.0272 31.0272 0 0 0-30.6688 31.3344c0 17.3056 13.7216 31.3344 30.6176 31.3344h74.24v40.0384h-74.24a31.0272 31.0272 0 0 0-30.6176 31.3856c0 17.3056 13.7216 31.3344 30.6176 31.3344h30.9248l-70.656 72.2944a31.9488 31.9488 0 0 0 0 44.3904 30.208 30.208 0 0 0 43.3664 0L512 475.904l101.2736 103.6288a30.208 30.208 0 0 0 43.3664 0 31.8464 31.8464 0 0 0 0-44.288l-70.656-72.2944z"  horiz-adv-x="1024" />

    
    <glyph glyph-name="zhanweishigongchengxinbaozhengjinshiwai" unicode="&#58967;" d="M512-76.8a62.5664 62.5664 0 0 0-44.4928 17.408l-35.9424 34.2016C191.2832 15.36 25.856 227.1232 54.3744 457.728 82.944 688.2816 295.5264 857.7024 539.136 844.032c243.6096-13.6704 433.7664-205.6704 433.664-437.8112 1.1264-212.9408-159.744-395.4176-380.3136-431.4112l-35.9936-34.2016A62.5664 62.5664 0 0 0 512-76.8M665.6 573.44l307.2-235.1104c-39.0656-114.432-82.432-193.5872-130.0992-237.4144-47.8208-51.8144-114.4832-89.7024-199.9872-113.7664L512 179.2c-31.744-4.6592-31.744 33.3824 0 114.176 14.5408 36.9664 98.9184-19.968 121.6 25.9072 4.096 8.3968-33.28-12.3392-29.952 2.2016 3.072 13.4656-94.5152 1.536-91.648 32.256 1.2288 13.4656-26.5728 17.92-3.8912 54.9376 9.8816 16.128 88.7808-22.3232 121.6 9.8816 8.4992 8.3968-89.7536 34.9184-84.3264 62.464 3.072 15.5648 43.1616 46.3872 120.2176 92.416zM585.984 462.9504h30.9248c16.896 0 30.6176-14.0288 30.6176-31.3344a31.0272 31.0272 0 0 0-30.6176-31.3856h-74.24v-40.0384h74.24c16.896 0 30.6176-14.0288 30.6176-31.3344a30.976 30.976 0 0 0-30.6176-31.3344h-74.24v-86.9888A30.976 30.976 0 0 0 512 179.2a31.0272 31.0272 0 0 0-30.6176 31.3344v86.9888h-74.24a31.0272 31.0272 0 0 0-30.6688 31.3344c0 17.3056 13.7216 31.3344 30.6176 31.3344h74.24v40.0384h-74.24a31.0272 31.0272 0 0 0-30.6176 31.3856c0 17.3056 13.7216 31.3344 30.6176 31.3344h30.9248l-70.656 72.2944a31.9488 31.9488 0 0 0 0 44.3904 30.208 30.208 0 0 0 43.3664 0L512 475.904l101.2736 103.6288a30.208 30.208 0 0 0 43.3664 0 31.8464 31.8464 0 0 0 0-44.288l-70.656-72.2944z"  horiz-adv-x="1024" />

    
    <glyph glyph-name="xiafachufa" unicode="&#58894;" d="M370.82 562.91h67.81v-49.11h-67.81zM483.94 513.81h68.02v49.1h-68.03l0.01-0.02zM600.08 562.91h64.73v-49.11h-64.73zM878.46 681.29c-10.99 8.95-25.35 13.97-40.27 13.97-1.43 0-2.67 0-4.09-0.13-0.83-0.12-10.29-0.64-25.21-0.64-24.65 0-72.66 1.4-118.15 11.27-58.71 12.67-126.59 71.33-146.3 82.98a66.15 66.15 0 0 1-65.61 0c-2.41-1.39-73.39-67.99-142.81-82.96-45.47-9.87-94.34-11.27-118.97-11.27-14.79 0-24.37 0.52-25.21 0.64-16.23 0.99-32.22-3.99-44.36-13.83-11.96-9.86-18.72-23.44-18.72-37.77v-129.6C128.74 34.7 486-26.89 501.2-29.3a68.685 68.685 0 0 1 20.84 0v-0.02c15.22 2.41 375.15 64.14 375.15 543.23V643.4c0.03 14.5-6.79 28.3-18.73 37.89zM394.3 161.89l-19.92 45.83c8.3 6.54 13.27 14.73 13.27 24.55v88.38h-77.99v49.11h127.78v-130.95a770.44 770.44 0 0 1 58.09 34.38l14.93-52.38a699.723 699.723 0 0 0-116.16-58.92z m-41.49 273.35l34.84 31.09c29.89-14.73 56.42-32.73 81.32-52.36l-31.51-34.38c-26.56 21.27-54.78 39.27-84.65 55.65z m358.48-207.89c0-42.57-21.59-63.82-61.41-63.82h-56.42l-11.61 50.73c18.24-1.64 34.84-3.27 49.77-3.27 16.6 0 24.9 9.82 24.9 29.46h1.66V454.86h53.11v-227.51zM543.66 260.1V428.68h49.79V260.1h-49.79z m172.6 211.14H322.93V605.46h393.33v-134.22z"  horiz-adv-x="1024" />

    
    <glyph glyph-name="shangbaogonganbeian" unicode="&#58930;" d="M727.1 420.4c-121.5 0-220-98.5-220-220s98.5-220 220-220 220 98.5 220 220-98.5 220-220 220z m139.7-237.2c-4.1-10.6-13.2-15.3-27.3-13.8h-55.9v-83.7c0-18.9-9.5-28.4-28.3-28.4H700c-7.3 0.5-13.7 3.5-19.2 9.1-5.6 5.6-8.6 12-9.1 19.3v83.7h-60.3c-4.8 0-9.4 1.1-13.4 3.3-4.1 2.2-7.4 5.7-9.8 10.5-2.4 4.8-3.4 9.6-2.9 14.2s2.9 9.1 7.3 13.5l116.3 121.5c2.4 2.4 5.1 4.5 8 6.2 2.9 1.7 6.5 2.8 10.9 3.3 4.4 2 8 2.2 10.9 0.7s5.6-3.4 8-5.8L863 210.9c6.6-7.8 7.9-17.1 3.8-27.7zM468.8 203.6c-0.1 141 115 256.2 256 256.2 84.4 0 159.2-40.8 205.8-103.8 5.7-7.8 18-3.7 18 5.9V635.4c0 10.4-4.5 20.3-12.4 27.2L738.4 834.7c-6.5 5.7-14.9 8.8-23.6 8.8H136.6c-9.9 0-18-8.1-18-18v-859.3c0-9.9 8.1-18 18-18l483.7 1c10.9 0 13.9 14.9 3.9 19.2-91.3 39-155.3 129.6-155.4 235.2z"  horiz-adv-x="1024" />

    
    <glyph glyph-name="zhiyuan" unicode="&#58943;" d="M589.647 828.5C609.724 828.5 626 812.224 626 792.147s-16.276-36.353-36.353-36.353H144.44V12.69H813.1V192.753c0 20.684 16.767 37.451 37.45 37.451 20.684 0 37.451-16.767 37.451-37.45v-182.169c0-38.66-31.34-70-70-70h-0.085l-678.003 0.827c-39.73 0.049-71.912 32.27-71.912 72V756.5c0 39.765 32.235 72 72 72h449.647z m109.356-19.471a19 19 0 0 0 8.614-8.614l82.303-166.517 183.976-26.694c10.385-1.507 17.582-11.147 16.075-21.531a19 19 0 0 0-5.55-10.888L851.312 445.23l31.428-182.972c1.776-10.342-5.167-20.166-15.51-21.942a19 19 0 0 0-12.047 1.903l-164.6 86.407-164.6-86.407c-9.291-4.878-20.777-1.3-25.654 7.991a19 19 0 0 0-1.903 12.048l31.428 182.972-133.107 129.555c-7.52 7.32-7.682 19.348-0.363 26.868a19 19 0 0 0 10.887 5.551l183.976 26.694 82.303 166.517c4.65 9.407 16.045 13.263 25.452 8.614z m-8.919-106.153l-60.689-122.969-135.704-19.719 98.196-95.718-23.18-135.156 121.377 63.812 121.378-63.812L788.28 464.47l98.196 95.718-135.704 19.72-60.689 122.968z"  horiz-adv-x="1024" />

    
    <glyph glyph-name="renzheng" unicode="&#59146;" d="M511.5 815c22.108 0 44.217-8.434 61.08-25.3l77.944-77.947h107.59c47.71 0 86.38-38.674 86.38-86.38v-107.59l74.204-74.204c33.736-33.733 33.736-88.426 0-122.16l-74.205-74.205v-111.329c0-47.706-38.67-86.38-86.38-86.38H646.786l-74.205-74.204C555.716-41.566 533.608-50 511.5-50c-22.11 0-44.218 8.434-61.081 25.3l-74.205 74.205H268.626c-47.704 0-86.38 38.674-86.38 86.38V243.472l-77.944 77.947c-33.736 33.733-33.736 88.426 0 122.16l77.943 77.947V625.372c0 47.705 38.677 86.38 86.38 86.38h103.85l77.943 77.947C467.283 806.565 489.39 815 511.498 815z m160.077-343.217c-11.677 11.677-30.608 11.677-42.285 0L486.564 329.056l-61.54 59.428c-11.76 11.357-30.43 11.147-41.932-0.385l-0.347-0.353-0.01-0.01c-11.47-11.878-11.14-30.807 0.739-42.278l81.098-78.316a29.762 29.762 0 0 1 13.637-7.533c10.422-3.505 22.393-1.106 30.696 7.197l162.682 162.682c11.677 11.677 11.677 30.609 0 42.285z"  horiz-adv-x="1024" />

    
    <glyph glyph-name="shixin" unicode="&#59031;" d="M512 246.848v93.867c0 21.952 21.163 36.586 28.63 41.45A321.6 321.6 0 0 0 736 448c75.904 0 146.837-25.6 202.837-69.483C955.03 365.1 960 356.565 960 341.952v-93.867C960 101.76 865.43-21.333 736-64c-129.43 42.667-224 165.781-224 310.848z m384 1.237v82.646A264.533 264.533 0 0 1 736 384c-57.43 0-111.424-18.56-156.757-52.864L576 328.853v-82.005c0-107.05 64.725-202.09 160-242.517 95.381 40.469 160 135.68 160 243.754zM736 85.333a32 32 0 1 0 0 64 32 32 0 0 0 0-64z m32 245.334v-128a32 32 0 0 0-64 0v128a32 32 0 0 0 64 0zM403.328 21.333h-348.8l10.07 72.768c14.25 103.04 92.074 188.672 199.68 230.763a216.683 216.683 0 0 0-65.11 154.88v71.424c0 119.765 97.216 216.832 217.11 216.832 119.871 0 217.109-97.067 217.109-216.832v-45.867c-23.446-1.408-44.182-6.016-64-16v61.867c0 84.395-68.566 152.832-153.11 152.832-84.565 0-153.109-68.437-153.109-152.832v-71.445a152.896 152.896 0 0 1 98.837-142.955c24.384-9.237 20.822-48.363-4.906-52.587C233.13 263.936 141.397 182.4 128 85.333h275.328v-0.085h0.341c17.664 0 32-13.91 32-31.573 0-17.6-14.762-32.214-32.341-32.342z"  horiz-adv-x="1024" />

    


  </font>
</defs>
</svg>
